<?xml version="1.0" standalone="no"?><svg xmlns="http://www.w3.org/2000/svg" viewBox="0 0 1440 320"><path fill="#04a6c2" fill-opacity="1" d="M0,288L24,245.3C48,203,96,117,144,69.3C192,21,240,11,288,10.7C336,11,384,21,432,53.3C480,85,528,139,576,133.3C624,128,672,64,720,69.3C768,75,816,149,864,170.7C912,192,960,160,1008,165.3C1056,171,1104,213,1152,234.7C1200,256,1248,256,1296,224C1344,192,1392,128,1416,96L1440,64L1440,320L1416,320C1392,320,1344,320,1296,320C1248,320,1200,320,1152,320C1104,320,1056,320,1008,320C960,320,912,320,864,320C816,320,768,320,720,320C672,320,624,320,576,320C528,320,480,320,432,320C384,320,336,320,288,320C240,320,192,320,144,320C96,320,48,320,24,320L0,320Z"></path></svg>