<svg xmlns="http://www.w3.org/2000/svg" version="1.1" xmlns:xlink="http://www.w3.org/1999/xlink" xmlns:svgjs="http://svgjs.com/svgjs" width="500" height="300" preserveAspectRatio="none" viewBox="0 0 500 300"><g mask="url(&quot;#SvgjsMask1277&quot;)" fill="none"><path d="M -227.57940387752404,251 C -194.18,230.6 -127.38,149.6 -60.57940387752405,149 C 6.22,148.4 39.62,271.8 106.42059612247596,248 C 173.22,224.2 206.62,29.6 273.42059612247596,30 C 340.22,30.4 395.1,228.6 440.42059612247596,250 C 485.74,271.4 488.08,159.6 500,137" stroke="rgba(4, 166, 194, 1)" stroke-width="2"></path><path d="M -38.31638349628025,183 C -4.92,152 61.88,20.4 128.68361650371975,28 C 195.48,35.6 228.88,206.4 295.68361650371975,221 C 362.48,235.6 395.88,114 462.68361650371975,101 C 529.48,88 622.22,147 629.6836165037198,156 C 637.15,165 525.94,148 500,146" stroke="rgba(4, 166, 194, 1)" stroke-width="2"></path><path d="M -92.11607801761225,116 C -58.72,124.4 8.08,176.4 74.88392198238775,158 C 141.68,139.6 175.08,23.6 241.88392198238773,24 C 308.68,24.4 342.08,152.4 408.88392198238773,160 C 475.68,167.6 557.66,38.8 575.8839219823877,62 C 594.11,85.2 515.18,233.2 500,276" stroke="rgba(4, 166, 194, 1)" stroke-width="2"></path></g><defs><mask id="SvgjsMask1277"><rect width="500" height="300" fill="#ffffff"></rect></mask></defs></svg>